<svg style="height:500px" xmlns="http://www.w3.org/2000/svg" viewBox="0 0 1440 320">
    <path fill="#22c55e" fill-opacity="0.8" d="M0,192L13.3,160C26.7,128,53,64,80,53.3C106.7,43,133,85,160,90.7C186.7,96,213,64,240,64C266.7,64,293,96,320,106.7C346.7,117,373,107,400,128C426.7,149,453,203,480,213.3C506.7,224,533,192,560,192C586.7,192,613,224,640,213.3C666.7,203,693,149,720,117.3C746.7,85,773,75,800,96C826.7,117,853,171,880,186.7C906.7,203,933,181,960,181.3C986.7,181,1013,203,1040,202.7C1066.7,203,1093,181,1120,165.3C1146.7,149,1173,139,1200,144C1226.7,149,1253,171,1280,186.7C1306.7,203,1333,213,1360,197.3C1386.7,181,1413,139,1427,117.3L1440,96L1440,320L1426.7,320C1413.3,320,1387,320,1360,320C1333.3,320,1307,320,1280,320C1253.3,320,1227,320,1200,320C1173.3,320,1147,320,1120,320C1093.3,320,1067,320,1040,320C1013.3,320,987,320,960,320C933.3,320,907,320,880,320C853.3,320,827,320,800,320C773.3,320,747,320,720,320C693.3,320,667,320,640,320C613.3,320,587,320,560,320C533.3,320,507,320,480,320C453.3,320,427,320,400,320C373.3,320,347,320,320,320C293.3,320,267,320,240,320C213.3,320,187,320,160,320C133.3,320,107,320,80,320C53.3,320,27,320,13,320L0,320Z"></path>
</svg>