<?xml version="1.0" encoding="iso-8859-1"?>
<!-- Uploaded to: SVG Repo, www.svgrepo.com, Generator: SVG Repo Mixer Tools -->
<!DOCTYPE svg PUBLIC "-//W3C//DTD SVG 1.1//EN" "http://www.w3.org/Graphics/SVG/1.1/DTD/svg11.dtd">
<svg fill="#000000" height="800px" width="800px" version="1.1" id="Capa_1" xmlns="http://www.w3.org/2000/svg" xmlns:xlink="http://www.w3.org/1999/xlink" 
	 viewBox="0 0 450.572 450.572" xml:space="preserve">
<g>
	<path d="M134.038,51.939l33.551,21.78c1.682,1.092,3.569,1.613,5.436,1.613c3.273,0,6.481-1.605,8.397-4.556
		c3.007-4.632,1.689-10.825-2.943-13.832l-13.562-8.804c28.369-4.947,70.994-2.552,115.14,6.563
		c23.193,4.788,45.817,11.248,65.427,18.681c1.167,0.442,2.365,0.652,3.543,0.652c4.036,0,7.837-2.461,9.353-6.459
		c1.957-5.164-0.642-10.937-5.806-12.895c-20.582-7.802-44.26-14.568-68.472-19.566c-46.581-9.617-92.092-12.035-122.918-6.624
		l8.469-13.046c3.007-4.632,1.69-10.826-2.942-13.833c-4.633-3.006-10.825-1.689-13.833,2.942l-21.781,33.551
		c-1.444,2.225-1.945,4.932-1.394,7.526C130.253,48.226,131.814,50.495,134.038,51.939z"/>
	<path d="M412.883,281.922c-3.059-26.157-16.641-51.947-39.277-74.584L271.025,104.871c-8.393-8.394-19.564-13.021-31.447-13.021
		c-11.882,0-23.052,4.626-31.454,13.028c-2.767,2.767-5.186,5.933-7.188,9.356l-9.479-9.473
		c-8.408-8.407-19.584-13.041-31.464-13.041c-11.86-0.001-23.013,4.62-31.404,13.011c-2.919,2.919-5.423,6.186-7.461,9.695
		l-1.701-1.7c-8.399-8.4-19.571-13.028-31.454-13.028c-11.882,0-23.053,4.627-31.455,13.029c-8.31,8.311-12.936,19.36-13.024,31.114
		c-0.087,11.734,4.357,22.839,12.516,31.27l0.114,0.117l0.116,0.116l3.478,3.478c-3.523,2.027-6.802,4.525-9.722,7.445
		c-17.344,17.344-17.344,45.564,0,62.908l95.911,95.911c-7.709,15.457-7.245,36.374,7.587,52.065
		c23.511,24.872,56.116,53.421,99.931,53.421c35.998,0,72.63-19.133,111.99-58.493C401.268,356.226,417.239,319.163,412.883,281.922
		z M351.273,377.937c-38.179,38.179-70.14,52.635-97.848,52.635c-33.548,0-60.859-21.201-85.396-47.16
		c-10.806-11.432-7.815-27.558,0-35.371l20.391,20.39c1.109,1.109,2.126,1.461,2.967,1.461c1.103,0,1.902-0.607,2.204-0.909
		c0.53-0.53,1.959-2.54-0.606-5.105c-2.476-2.476-128.846-128.846-128.846-128.846c-9.561-9.561-9.562-25.063,0-34.624
		c4.909-4.909,11.617-7.71,18.125-7.71c5.122,0.001,10.121,1.737,14.015,5.548c0.038,0.026,82.501,82.628,82.501,82.628
		c0.778,0.777,1.797,1.166,2.817,1.166c1.021,0,2.042-0.39,2.821-1.168c1.557-1.557,1.557-4.08,0-5.637L70.382,161.201
		c-9.275-9.584-9.185-24.868,0.28-34.333c4.78-4.781,11.046-7.171,17.312-7.171c6.266,0,12.533,2.391,17.313,7.172L231.026,252.58
		c0.768,0.767,1.772,1.15,2.777,1.15s2.01-0.384,2.777-1.15c1.532-1.532,1.533-4.018-0.001-5.552l-96.226-96.216
		c-8.704-8.704-6.322-23.239,2.379-31.939c4.772-4.772,11.014-7.154,17.26-7.153c6.268,0,12.54,2.399,17.329,7.188l108.227,108.159
		c0.746,0.745,1.723,1.118,2.701,1.118c0.978,0,1.956-0.373,2.702-1.119c1.491-1.491,1.491-3.911,0-5.402l-71.688-71.667
		c-7.915-7.915-5.42-22.552,3.004-30.977c4.78-4.78,11.046-7.17,17.311-7.17c6.266,0,12.532,2.391,17.313,7.171l102.573,102.46
		C389.046,251.063,422.091,307.118,351.273,377.937z"/>
</g>
</svg>